<svg xmlns="http://www.w3.org/2000/svg" xmlns:xlink="http://www.w3.org/1999/xlink" width="500" zoomAndPan="magnify" viewBox="0 0 375 187.499995" height="250" preserveAspectRatio="xMidYMid meet" version="1.0"><defs><g/><clipPath id="0da5e1fbff"><path d="M 64.300781 104 L 77 104 L 77 112.535156 L 64.300781 112.535156 Z M 64.300781 104 " clip-rule="nonzero"/></clipPath><clipPath id="bb3b299458"><path d="M 114 104 L 126 104 L 126 112.535156 L 114 112.535156 Z M 114 104 " clip-rule="nonzero"/></clipPath><clipPath id="cc79ce1f59"><path d="M 65 74.386719 L 126 74.386719 L 126 99 L 65 99 Z M 65 74.386719 " clip-rule="nonzero"/></clipPath><clipPath id="03317893b2"><path d="M 64.300781 90 L 126.382812 90 L 126.382812 112 L 64.300781 112 Z M 64.300781 90 " clip-rule="nonzero"/></clipPath></defs><g fill="#004aad" fill-opacity="1"><g transform="translate(162.888879, 92.742705)"><g><path d="M 8.019531 0.300781 C 11.878906 0.300781 14.800781 -2.039062 15.398438 -5.597656 L 11.300781 -5.597656 C 10.800781 -4.28125 9.621094 -3.441406 8.097656 -3.441406 C 6.140625 -3.441406 4.78125 -4.898438 4.78125 -7 C 4.78125 -9.121094 6.160156 -10.558594 8.140625 -10.558594 C 9.597656 -10.558594 10.820312 -9.738281 11.238281 -8.480469 L 15.320312 -8.480469 C 14.597656 -12.019531 11.71875 -14.300781 7.980469 -14.300781 C 3.660156 -14.300781 0.679688 -11.320312 0.679688 -7 C 0.679688 -2.679688 3.660156 0.300781 8.019531 0.300781 Z M 8.019531 0.300781 "/></g></g><g transform="translate(178.927645, 92.742705)"><g><path d="M 0.101562 0 L 4.378906 0 L 5.140625 -1.980469 L 9.917969 -1.980469 L 10.679688 0 L 14.980469 0 L 9.539062 -14 L 5.539062 -14 Z M 5.980469 -4.941406 L 7.539062 -9.277344 L 9.097656 -4.941406 Z M 5.980469 -4.941406 "/></g></g><g transform="translate(194.006485, 92.742705)"><g><path d="M 1.480469 0 L 5.519531 0 L 5.519531 -3.980469 L 7.039062 -3.980469 L 9.039062 0 L 13.617188 0 L 11.039062 -4.71875 C 12.519531 -5.539062 13.359375 -7.019531 13.359375 -8.980469 C 13.359375 -12.078125 11.257812 -14 7.859375 -14 L 1.480469 -14 Z M 5.441406 -7.199219 L 5.441406 -10.699219 L 7.320312 -10.699219 C 8.597656 -10.699219 9.300781 -10.078125 9.300781 -8.960938 C 9.300781 -7.839844 8.597656 -7.199219 7.320312 -7.199219 Z M 5.441406 -7.199219 "/></g></g></g><g fill="#004aad" fill-opacity="1"><g transform="translate(208.405373, 92.742705)"><g><path d="M 1.480469 0 L 5.480469 0 L 5.480469 -7.097656 L 8.179688 -3.320312 L 10.800781 -3.320312 L 13.480469 -7.078125 L 13.480469 0 L 17.480469 0 L 17.480469 -14 L 14.199219 -14 L 9.480469 -7.339844 L 4.78125 -14 L 1.480469 -14 Z M 1.480469 0 "/></g></g></g><g fill="#004aad" fill-opacity="1"><g transform="translate(227.363912, 92.742705)"><g><path d="M 0.101562 0 L 4.378906 0 L 5.140625 -1.980469 L 9.917969 -1.980469 L 10.679688 0 L 14.980469 0 L 9.539062 -14 L 5.539062 -14 Z M 5.980469 -4.941406 L 7.539062 -9.277344 L 9.097656 -4.941406 Z M 5.980469 -4.941406 "/></g></g></g><g fill="#004aad" fill-opacity="1"><g transform="translate(242.44275, 92.742705)"><g><path d="M 4.820312 0 L 8.839844 0 L 8.839844 -10.257812 L 13.097656 -10.257812 L 13.097656 -14 L 0.558594 -14 L 0.558594 -10.257812 L 4.820312 -10.257812 Z M 4.820312 0 "/></g></g><g transform="translate(256.101699, 92.742705)"><g><path d="M 1.480469 0 L 11.300781 0 L 11.300781 -3.300781 L 5.480469 -3.300781 L 5.480469 -5.460938 L 10.539062 -5.460938 L 10.539062 -8.699219 L 5.480469 -8.699219 L 5.480469 -10.738281 L 11.078125 -10.738281 L 11.078125 -14 L 1.480469 -14 Z M 1.480469 0 "/></g></g><g transform="translate(268.300761, 92.742705)"><g><path d="M 6.5 0.300781 C 9.980469 0.300781 12.039062 -1.339844 12.039062 -4.101562 C 12.039062 -6.417969 10.539062 -7.78125 7.140625 -8.539062 C 5.339844 -8.9375 4.679688 -9.378906 4.679688 -10.097656 C 4.679688 -10.777344 5.28125 -11.199219 6.21875 -11.199219 C 7.339844 -11.199219 7.980469 -10.621094 7.980469 -9.558594 L 11.777344 -9.558594 C 11.777344 -12.4375 9.578125 -14.300781 6.140625 -14.300781 C 2.839844 -14.300781 0.800781 -12.660156 0.800781 -10.019531 C 0.800781 -7.660156 2.339844 -6.199219 5.5 -5.597656 C 7.199219 -5.257812 8.019531 -4.738281 8.019531 -3.941406 C 8.019531 -3.238281 7.417969 -2.839844 6.441406 -2.839844 C 5.28125 -2.839844 4.601562 -3.460938 4.601562 -4.539062 L 0.699219 -4.539062 C 0.699219 -1.519531 2.859375 0.300781 6.5 0.300781 Z M 6.5 0.300781 "/></g></g></g><g fill="#5271ff" fill-opacity="1"><g transform="translate(138.828078, 110.568565)"><g><path d="M 2.453125 0 L 0.15625 0 L 1.21875 -6.375 L 3.46875 -6.375 C 4.101562 -6.375 4.632812 -6.242188 5.0625 -5.984375 C 5.488281 -5.722656 5.785156 -5.347656 5.953125 -4.859375 C 6.128906 -4.367188 6.160156 -3.789062 6.046875 -3.125 C 5.941406 -2.46875 5.726562 -1.90625 5.40625 -1.4375 C 5.082031 -0.976562 4.671875 -0.625 4.171875 -0.375 C 3.671875 -0.125 3.097656 0 2.453125 0 Z M 1.703125 -1.15625 L 2.53125 -1.15625 C 3.125 -1.15625 3.609375 -1.320312 3.984375 -1.65625 C 4.359375 -2 4.609375 -2.535156 4.734375 -3.265625 C 4.847656 -3.960938 4.78125 -4.460938 4.53125 -4.765625 C 4.28125 -5.066406 3.859375 -5.21875 3.265625 -5.21875 L 2.375 -5.21875 Z M 1.703125 -1.15625 "/></g></g></g><g fill="#5271ff" fill-opacity="1"><g transform="translate(148.211629, 110.568565)"><g><path d="M 0.15625 0 L 1.21875 -6.375 L 3.734375 -6.375 C 4.453125 -6.375 4.976562 -6.179688 5.3125 -5.796875 C 5.65625 -5.421875 5.773438 -4.921875 5.671875 -4.296875 C 5.597656 -3.859375 5.4375 -3.484375 5.1875 -3.171875 C 4.945312 -2.867188 4.628906 -2.640625 4.234375 -2.484375 L 5.1875 0 L 3.6875 0 L 2.859375 -2.265625 L 1.875 -2.265625 L 1.5 0 Z M 2.0625 -3.34375 L 2.96875 -3.34375 C 3.738281 -3.34375 4.175781 -3.660156 4.28125 -4.296875 C 4.382812 -4.941406 4.054688 -5.265625 3.296875 -5.265625 L 2.390625 -5.265625 Z M 2.0625 -3.34375 "/></g></g></g><g fill="#5271ff" fill-opacity="1"><g transform="translate(157.025422, 110.568565)"><g><path d="M 2.5625 -6.375 L 1.5 0 L 0.15625 0 L 1.21875 -6.375 Z M 2.5625 -6.375 "/></g></g></g><g fill="#5271ff" fill-opacity="1"><g transform="translate(162.492302, 110.568565)"><g><path d="M 2.359375 -6.375 L 3.109375 -1.53125 L 3.171875 -1.53125 L 5.515625 -6.375 L 7 -6.375 L 3.75 0 L 2.015625 0 L 0.875 -6.375 Z M 2.359375 -6.375 "/></g></g></g><g fill="#5271ff" fill-opacity="1"><g transform="translate(172.056427, 110.568565)"><g><path d="M 0.15625 0 L 1.21875 -6.375 L 5.515625 -6.375 L 5.328125 -5.265625 L 2.375 -5.265625 L 2.125 -3.75 L 4.859375 -3.75 L 4.671875 -2.640625 L 1.9375 -2.640625 L 1.6875 -1.109375 L 4.65625 -1.109375 L 4.46875 0 Z M 0.15625 0 "/></g></g></g><g fill="#5271ff" fill-opacity="1"><g transform="translate(180.434344, 110.568565)"><g/></g></g><g fill="#5271ff" fill-opacity="1"><g transform="translate(185.474681, 110.568565)"><g><path d="M 0.84375 -6.375 L 2.34375 -6.375 L 3.34375 -3.625 L 3.421875 -3.625 L 5.3125 -6.375 L 6.828125 -6.375 L 3.828125 -2.25 L 3.453125 0 L 2.109375 0 L 2.484375 -2.25 Z M 0.84375 -6.375 "/></g></g></g><g fill="#5271ff" fill-opacity="1"><g transform="translate(194.833327, 110.568565)"><g><path d="M 6.53125 -3.09375 C 6.414062 -2.414062 6.191406 -1.835938 5.859375 -1.359375 C 5.523438 -0.890625 5.117188 -0.53125 4.640625 -0.28125 C 4.160156 -0.03125 3.644531 0.09375 3.09375 0.09375 C 2.507812 0.09375 2.007812 -0.0351562 1.59375 -0.296875 C 1.175781 -0.566406 0.875 -0.953125 0.6875 -1.453125 C 0.5 -1.953125 0.460938 -2.554688 0.578125 -3.265625 C 0.691406 -3.941406 0.914062 -4.519531 1.25 -5 C 1.582031 -5.476562 1.988281 -5.84375 2.46875 -6.09375 C 2.957031 -6.34375 3.476562 -6.46875 4.03125 -6.46875 C 4.601562 -6.46875 5.097656 -6.332031 5.515625 -6.0625 C 5.929688 -5.800781 6.234375 -5.414062 6.421875 -4.90625 C 6.609375 -4.40625 6.644531 -3.800781 6.53125 -3.09375 Z M 5.1875 -3.265625 C 5.289062 -3.921875 5.234375 -4.414062 5.015625 -4.75 C 4.796875 -5.09375 4.453125 -5.265625 3.984375 -5.265625 C 3.460938 -5.265625 3.015625 -5.078125 2.640625 -4.703125 C 2.273438 -4.328125 2.035156 -3.789062 1.921875 -3.09375 C 1.804688 -2.4375 1.863281 -1.941406 2.09375 -1.609375 C 2.320312 -1.273438 2.671875 -1.109375 3.140625 -1.109375 C 3.648438 -1.109375 4.085938 -1.289062 4.453125 -1.65625 C 4.828125 -2.03125 5.070312 -2.566406 5.1875 -3.265625 Z M 5.1875 -3.265625 "/></g></g></g><g fill="#5271ff" fill-opacity="1"><g transform="translate(204.696342, 110.568565)"><g><path d="M 5.15625 -6.375 L 6.5 -6.375 L 5.796875 -2.15625 C 5.722656 -1.675781 5.539062 -1.269531 5.25 -0.9375 C 4.96875 -0.601562 4.613281 -0.347656 4.1875 -0.171875 C 3.769531 0.00390625 3.300781 0.09375 2.78125 0.09375 C 2.269531 0.09375 1.828125 0.00390625 1.453125 -0.171875 C 1.085938 -0.347656 0.820312 -0.601562 0.65625 -0.9375 C 0.488281 -1.269531 0.441406 -1.675781 0.515625 -2.15625 L 1.21875 -6.375 L 2.5625 -6.375 L 1.875 -2.203125 C 1.820312 -1.867188 1.898438 -1.601562 2.109375 -1.40625 C 2.316406 -1.207031 2.609375 -1.109375 2.984375 -1.109375 C 3.359375 -1.109375 3.6875 -1.207031 3.96875 -1.40625 C 4.25 -1.601562 4.414062 -1.867188 4.46875 -2.203125 Z M 5.15625 -6.375 "/></g></g></g><g fill="#5271ff" fill-opacity="1"><g transform="translate(214.098576, 110.568565)"><g><path d="M 0.15625 0 L 1.21875 -6.375 L 3.734375 -6.375 C 4.453125 -6.375 4.976562 -6.179688 5.3125 -5.796875 C 5.65625 -5.421875 5.773438 -4.921875 5.671875 -4.296875 C 5.597656 -3.859375 5.4375 -3.484375 5.1875 -3.171875 C 4.945312 -2.867188 4.628906 -2.640625 4.234375 -2.484375 L 5.1875 0 L 3.6875 0 L 2.859375 -2.265625 L 1.875 -2.265625 L 1.5 0 Z M 2.0625 -3.34375 L 2.96875 -3.34375 C 3.738281 -3.34375 4.175781 -3.660156 4.28125 -4.296875 C 4.382812 -4.941406 4.054688 -5.265625 3.296875 -5.265625 L 2.390625 -5.265625 Z M 2.0625 -3.34375 "/></g></g></g><g fill="#5271ff" fill-opacity="1"><g transform="translate(222.912366, 110.568565)"><g/></g></g><g fill="#5271ff" fill-opacity="1"><g transform="translate(227.9527, 110.568565)"><g><path d="M 2.453125 0 L 0.15625 0 L 1.21875 -6.375 L 3.46875 -6.375 C 4.101562 -6.375 4.632812 -6.242188 5.0625 -5.984375 C 5.488281 -5.722656 5.785156 -5.347656 5.953125 -4.859375 C 6.128906 -4.367188 6.160156 -3.789062 6.046875 -3.125 C 5.941406 -2.46875 5.726562 -1.90625 5.40625 -1.4375 C 5.082031 -0.976562 4.671875 -0.625 4.171875 -0.375 C 3.671875 -0.125 3.097656 0 2.453125 0 Z M 1.703125 -1.15625 L 2.53125 -1.15625 C 3.125 -1.15625 3.609375 -1.320312 3.984375 -1.65625 C 4.359375 -2 4.609375 -2.535156 4.734375 -3.265625 C 4.847656 -3.960938 4.78125 -4.460938 4.53125 -4.765625 C 4.28125 -5.066406 3.859375 -5.21875 3.265625 -5.21875 L 2.375 -5.21875 Z M 1.703125 -1.15625 "/></g></g></g><g fill="#5271ff" fill-opacity="1"><g transform="translate(237.336255, 110.568565)"><g><path d="M 0.15625 0 L 1.21875 -6.375 L 3.734375 -6.375 C 4.453125 -6.375 4.976562 -6.179688 5.3125 -5.796875 C 5.65625 -5.421875 5.773438 -4.921875 5.671875 -4.296875 C 5.597656 -3.859375 5.4375 -3.484375 5.1875 -3.171875 C 4.945312 -2.867188 4.628906 -2.640625 4.234375 -2.484375 L 5.1875 0 L 3.6875 0 L 2.859375 -2.265625 L 1.875 -2.265625 L 1.5 0 Z M 2.0625 -3.34375 L 2.96875 -3.34375 C 3.738281 -3.34375 4.175781 -3.660156 4.28125 -4.296875 C 4.382812 -4.941406 4.054688 -5.265625 3.296875 -5.265625 L 2.390625 -5.265625 Z M 2.0625 -3.34375 "/></g></g></g><g fill="#5271ff" fill-opacity="1"><g transform="translate(246.150045, 110.568565)"><g><path d="M 0.15625 0 L 1.21875 -6.375 L 5.515625 -6.375 L 5.328125 -5.265625 L 2.375 -5.265625 L 2.125 -3.75 L 4.859375 -3.75 L 4.671875 -2.640625 L 1.9375 -2.640625 L 1.6875 -1.109375 L 4.65625 -1.109375 L 4.46875 0 Z M 0.15625 0 "/></g></g></g><g fill="#5271ff" fill-opacity="1"><g transform="translate(254.52796, 110.568565)"><g><path d="M 1.25 0 L -0.1875 0 L 3.0625 -6.375 L 4.8125 -6.375 L 5.953125 0 L 4.5 0 L 4.265625 -1.453125 L 1.96875 -1.453125 Z M 2.484375 -2.5 L 4.109375 -2.5 L 3.71875 -4.921875 L 3.671875 -4.921875 Z M 2.484375 -2.5 "/></g></g></g><g fill="#5271ff" fill-opacity="1"><g transform="translate(264.092082, 110.568565)"><g><path d="M 1.21875 -6.375 L 2.875 -6.375 L 3.921875 -2.09375 L 4 -2.09375 L 6.46875 -6.375 L 8.125 -6.375 L 7.0625 0 L 5.765625 0 L 6.453125 -4.15625 L 6.390625 -4.15625 L 4.0625 -0.03125 L 3.171875 -0.03125 L 2.21875 -4.171875 L 2.15625 -4.171875 L 1.46875 0 L 0.15625 0 Z M 1.21875 -6.375 "/></g></g></g><g fill="#5271ff" fill-opacity="1"><g transform="translate(275.119509, 110.568565)"><g/></g></g><g fill="#5271ff" fill-opacity="1"><g transform="translate(280.159844, 110.568565)"><g><path d="M 6.46875 -4.140625 L 5.125 -4.140625 C 5.125 -4.492188 5.019531 -4.769531 4.8125 -4.96875 C 4.613281 -5.164062 4.335938 -5.265625 3.984375 -5.265625 C 3.472656 -5.265625 3.03125 -5.078125 2.65625 -4.703125 C 2.28125 -4.328125 2.039062 -3.796875 1.9375 -3.109375 C 1.820312 -2.441406 1.878906 -1.941406 2.109375 -1.609375 C 2.335938 -1.273438 2.679688 -1.109375 3.140625 -1.109375 C 3.523438 -1.109375 3.863281 -1.203125 4.15625 -1.390625 C 4.457031 -1.578125 4.664062 -1.835938 4.78125 -2.171875 L 6.140625 -2.171875 C 6.023438 -1.785156 5.828125 -1.421875 5.546875 -1.078125 C 5.273438 -0.734375 4.925781 -0.453125 4.5 -0.234375 C 4.082031 -0.015625 3.609375 0.09375 3.078125 0.09375 C 2.492188 0.09375 1.992188 -0.0351562 1.578125 -0.296875 C 1.171875 -0.566406 0.875 -0.953125 0.6875 -1.453125 C 0.507812 -1.953125 0.476562 -2.554688 0.59375 -3.265625 C 0.707031 -3.953125 0.929688 -4.53125 1.265625 -5 C 1.597656 -5.476562 2 -5.84375 2.46875 -6.09375 C 2.945312 -6.34375 3.460938 -6.46875 4.015625 -6.46875 C 4.515625 -6.46875 4.953125 -6.375 5.328125 -6.1875 C 5.703125 -6.007812 5.988281 -5.742188 6.1875 -5.390625 C 6.394531 -5.046875 6.488281 -4.628906 6.46875 -4.140625 Z M 6.46875 -4.140625 "/></g></g></g><g fill="#5271ff" fill-opacity="1"><g transform="translate(289.761336, 110.568565)"><g><path d="M 1.25 0 L -0.1875 0 L 3.0625 -6.375 L 4.8125 -6.375 L 5.953125 0 L 4.5 0 L 4.265625 -1.453125 L 1.96875 -1.453125 Z M 2.484375 -2.5 L 4.109375 -2.5 L 3.71875 -4.921875 L 3.671875 -4.921875 Z M 2.484375 -2.5 "/></g></g></g><g fill="#5271ff" fill-opacity="1"><g transform="translate(299.325458, 110.568565)"><g><path d="M 0.15625 0 L 1.21875 -6.375 L 3.734375 -6.375 C 4.453125 -6.375 4.976562 -6.179688 5.3125 -5.796875 C 5.65625 -5.421875 5.773438 -4.921875 5.671875 -4.296875 C 5.597656 -3.859375 5.4375 -3.484375 5.1875 -3.171875 C 4.945312 -2.867188 4.628906 -2.640625 4.234375 -2.484375 L 5.1875 0 L 3.6875 0 L 2.859375 -2.265625 L 1.875 -2.265625 L 1.5 0 Z M 2.0625 -3.34375 L 2.96875 -3.34375 C 3.738281 -3.34375 4.175781 -3.660156 4.28125 -4.296875 C 4.382812 -4.941406 4.054688 -5.265625 3.296875 -5.265625 L 2.390625 -5.265625 Z M 2.0625 -3.34375 "/></g></g></g><path fill="#5271ff" d="M 69.054688 97.480469 C 71.527344 98.417969 75.289062 99.023438 76.476562 99.09375 C 77.664062 99.164062 77.921875 98.882812 77.921875 98.882812 C 74.09375 98.160156 66.855469 95.515625 66.855469 95.515625 C 66.855469 95.515625 66.578125 96.546875 69.054688 97.480469 Z M 69.054688 97.480469 " fill-opacity="1" fill-rule="nonzero"/><path fill="#5271ff" d="M 123.824219 95.519531 C 123.824219 95.519531 116.585938 98.160156 112.757812 98.886719 C 112.757812 98.886719 113.015625 99.164062 114.207031 99.097656 C 115.394531 99.027344 119.152344 98.417969 121.625 97.484375 C 124.101562 96.546875 123.824219 95.519531 123.824219 95.519531 Z M 123.824219 95.519531 " fill-opacity="1" fill-rule="nonzero"/><g clip-path="url(#0da5e1fbff)"><path fill="#004aad" d="M 64.875 104.003906 L 65.039062 110.679688 C 65.039062 110.925781 65.085938 111.160156 65.179688 111.386719 C 65.273438 111.613281 65.410156 111.816406 65.582031 111.988281 C 65.757812 112.164062 65.957031 112.296875 66.183594 112.390625 C 66.410156 112.488281 66.648438 112.535156 66.894531 112.535156 L 74.515625 112.535156 C 74.78125 112.535156 75.035156 112.484375 75.28125 112.382812 C 75.527344 112.28125 75.746094 112.132812 75.933594 111.945312 C 76.121094 111.757812 76.265625 111.539062 76.371094 111.292969 C 76.472656 111.046875 76.523438 110.789062 76.523438 110.523438 C 76.523438 110.523438 71.292969 109.824219 68.046875 108.445312 C 65.476562 107.351562 64.875 104.003906 64.875 104.003906 Z M 64.875 104.003906 " fill-opacity="1" fill-rule="nonzero"/></g><g clip-path="url(#bb3b299458)"><path fill="#004aad" d="M 122.636719 108.445312 C 119.390625 109.824219 114.160156 110.527344 114.160156 110.527344 C 114.160156 110.792969 114.210938 111.050781 114.316406 111.296875 C 114.417969 111.542969 114.5625 111.757812 114.75 111.945312 C 114.9375 112.132812 115.15625 112.28125 115.398438 112.382812 C 115.644531 112.484375 115.902344 112.535156 116.167969 112.535156 L 123.789062 112.535156 C 124.035156 112.535156 124.273438 112.488281 124.5 112.394531 C 124.730469 112.300781 124.929688 112.164062 125.105469 111.992188 C 125.277344 111.816406 125.410156 111.613281 125.507812 111.386719 C 125.601562 111.160156 125.648438 110.921875 125.648438 110.675781 L 125.8125 104.003906 C 125.8125 104.003906 125.207031 107.351562 122.636719 108.445312 Z M 122.636719 108.445312 " fill-opacity="1" fill-rule="nonzero"/></g><path fill="#004aad" d="M 95.339844 107.484375 C 88.644531 107.59375 82.875 105.664062 82.875 105.664062 C 87.738281 108.28125 95.339844 108.265625 95.339844 108.265625 C 95.339844 108.265625 102.941406 108.28125 107.808594 105.664062 C 107.808594 105.664062 102.226562 107.554688 95.339844 107.484375 Z M 95.339844 107.484375 " fill-opacity="1" fill-rule="nonzero"/><path fill="#004aad" d="M 105.566406 103.863281 C 102.113281 105.09375 95.339844 105.136719 95.339844 105.136719 C 95.339844 105.136719 88.570312 105.09375 85.117188 103.863281 C 81.949219 102.730469 79.464844 100.195312 79.464844 100.195312 C 79.464844 100.195312 81.941406 103.28125 84.882812 104.496094 C 87.824219 105.710938 95.339844 105.851562 95.339844 105.851562 C 95.339844 105.851562 102.859375 105.710938 105.800781 104.496094 C 108.742188 103.28125 111.21875 100.195312 111.21875 100.195312 C 111.21875 100.195312 108.734375 102.730469 105.566406 103.863281 Z M 105.566406 103.863281 " fill-opacity="1" fill-rule="nonzero"/><path fill="#004aad" d="M 95.339844 103.691406 C 95.339844 103.691406 102.859375 103.550781 105.800781 102.335938 C 107.535156 101.621094 109.105469 100.253906 110.105469 99.25 C 109.976562 99.277344 109.800781 99.3125 109.730469 99.328125 C 108.707031 100.128906 107.230469 101.109375 105.566406 101.707031 C 102.113281 102.9375 95.34375 102.976562 95.34375 102.976562 C 95.34375 102.976562 88.570312 102.9375 85.117188 101.703125 C 83.453125 101.109375 81.976562 100.125 80.953125 99.328125 C 80.828125 99.304688 80.703125 99.28125 80.578125 99.253906 C 81.574219 100.253906 83.148438 101.621094 84.882812 102.335938 C 87.824219 103.554688 95.339844 103.691406 95.339844 103.691406 Z M 95.339844 103.691406 " fill-opacity="1" fill-rule="nonzero"/><g clip-path="url(#cc79ce1f59)"><path fill="#004aad" d="M 68.585938 92.921875 C 71.25 94.246094 81.589844 98.910156 95.34375 98.886719 C 109.09375 98.910156 119.433594 94.242188 122.097656 92.921875 C 124.558594 91.703125 125.597656 90.46875 125.109375 89.066406 C 124.617188 87.664062 120.976562 85.699219 120.976562 85.699219 C 120.976562 85.699219 120.554688 85.277344 117.195312 85.136719 C 117.195312 85.136719 117.101562 84.980469 116.9375 84.707031 C 117.289062 84.765625 117.636719 84.851562 117.976562 84.960938 C 120.324219 85.699219 123.160156 84.507812 122.914062 83.28125 C 122.671875 82.054688 119.832031 81.5625 118.539062 81.808594 C 117.242188 82.050781 117.207031 83.59375 117.207031 83.59375 L 116.25 83.59375 C 115.035156 81.652344 112.878906 78.386719 111.265625 76.863281 C 108.882812 74.617188 106.59375 74.523438 95.339844 74.386719 C 84.089844 74.527344 81.800781 74.621094 79.417969 76.863281 C 77.800781 78.386719 75.648438 81.652344 74.433594 83.597656 L 73.476562 83.597656 C 73.476562 83.597656 73.441406 82.054688 72.144531 81.808594 C 70.851562 81.5625 68.015625 82.054688 67.769531 83.28125 C 67.523438 84.507812 70.359375 85.699219 72.707031 84.964844 C 73.046875 84.851562 73.394531 84.765625 73.746094 84.710938 C 73.582031 84.980469 73.488281 85.140625 73.488281 85.140625 C 70.128906 85.277344 69.707031 85.699219 69.707031 85.699219 C 69.707031 85.699219 66.070312 87.664062 65.574219 89.066406 C 65.078125 90.46875 66.125 91.703125 68.585938 92.921875 Z M 79.90625 88.011719 C 80.011719 89.132812 80.570312 92.289062 80.570312 92.289062 L 78.714844 86.46875 L 81.097656 86.46875 C 81.097656 86.46875 79.800781 86.890625 79.90625 88.011719 Z M 95.339844 98.25 C 95.339844 98.25 88.195312 97.800781 82.734375 95.957031 C 82.734375 95.957031 91.070312 96.917969 95.339844 96.707031 C 99.613281 96.917969 107.949219 95.957031 107.949219 95.957031 C 102.484375 97.804688 95.339844 98.25 95.339844 98.25 Z M 110.644531 92.289062 C 110.644531 92.289062 111.207031 89.132812 111.308594 88.011719 C 111.414062 86.886719 110.121094 86.46875 110.121094 86.46875 L 112.503906 86.46875 Z M 81.191406 76.835938 C 83.1875 75.597656 85.960938 75.300781 95.339844 75.300781 C 103.910156 75.300781 107.742188 75.570312 109.453125 76.808594 C 111.84375 78.210938 114.171875 82.523438 116.242188 85.796875 L 95.339844 86.261719 L 74.515625 85.796875 C 76.582031 82.523438 78.800781 78.242188 81.191406 76.835938 Z M 81.191406 76.835938 " fill-opacity="1" fill-rule="nonzero"/></g><g clip-path="url(#03317893b2)"><path fill="#004aad" d="M 125.539062 90.542969 C 125.351562 92.449219 122.761719 93.503906 116.039062 95.960938 C 107.019531 99.253906 95.339844 99.375 95.339844 99.375 C 95.339844 99.375 83.660156 99.253906 74.644531 95.960938 C 67.921875 93.503906 65.332031 92.449219 65.144531 90.542969 C 65.144531 90.542969 64.3125 91.609375 64.429688 95.613281 C 64.558594 100.007812 64.570312 105.570312 67.792969 107.628906 C 70.191406 109.160156 78.273438 110.429688 82.371094 110.441406 C 82.371094 110.441406 82.375 110.441406 82.375 110.441406 C 96.109375 112.109375 108.355469 110.441406 108.355469 110.441406 C 112.464844 110.421875 120.5 109.152344 122.894531 107.628906 C 126.117188 105.570312 126.125 100.007812 126.253906 95.613281 C 126.371094 91.609375 125.539062 90.542969 125.539062 90.542969 Z M 125.234375 95.566406 C 124.640625 96.171875 124.851562 96.40625 124.011719 100.613281 C 123.167969 104.824219 114.671875 105.523438 114.671875 105.523438 C 116.355469 101.832031 119.667969 98.699219 119.667969 98.699219 C 113.210938 101.34375 108.007812 106.21875 106.402344 108.683594 C 104.460938 109.015625 101.042969 109.429688 95.96875 109.429688 C 89.527344 109.429688 85.539062 108.546875 83.835938 108.0625 C 81.847656 105.46875 76.964844 101.136719 71.015625 98.699219 C 71.015625 98.699219 74.332031 101.832031 76.011719 105.523438 C 76.011719 105.523438 67.515625 104.824219 66.671875 100.613281 C 65.832031 96.40625 66.046875 96.171875 65.449219 95.566406 C 65.285156 94.941406 65.207031 94.304688 65.21875 93.660156 C 65.21875 93.660156 73.070312 99.632812 95.339844 100.03125 C 117.609375 99.632812 125.460938 93.660156 125.460938 93.660156 C 125.476562 94.304688 125.398438 94.941406 125.234375 95.566406 Z M 125.234375 95.566406 " fill-opacity="1" fill-rule="nonzero"/></g></svg>