<?xml version="1.0" standalone="no"?>
<!DOCTYPE svg PUBLIC "-//W3C//DTD SVG 20010904//EN"
 "http://www.w3.org/TR/2001/REC-SVG-20010904/DTD/svg10.dtd">
<svg version="1.0" xmlns="http://www.w3.org/2000/svg"
 width="1346.000000pt" height="403.000000pt" viewBox="0 0 1346.000000 403.000000"
 preserveAspectRatio="xMidYMid meet">

<g transform="translate(0.000000,403.000000) scale(0.100000,-0.100000)"
fill="#000000" stroke="none">
<path d="M1890 3224 c-111 -8 -220 -25 -275 -44 -113 -39 -199 -126 -353 -357
-66 -99 -79 -113 -103 -113 -23 0 -29 6 -39 35 -17 51 -57 69 -140 63 -79 -6
-156 -38 -171 -71 -17 -37 4 -65 68 -94 48 -22 64 -24 131 -20 42 3 91 9 107
12 21 5 27 4 20 -3 -6 -6 -51 -16 -100 -21 -101 -12 -150 -33 -257 -112 -110
-82 -132 -143 -79 -218 43 -60 211 -147 451 -234 247 -89 550 -160 830 -194
200 -24 610 -24 810 0 401 48 834 172 1124 320 209 106 239 203 97 310 -133
101 -177 120 -313 132 -38 4 -68 11 -68 17 0 7 13 7 38 2 20 -5 73 -9 117 -9
63 1 89 6 123 23 116 61 48 149 -125 160 -86 5 -115 -8 -133 -63 -10 -29 -16
-35 -39 -35 -24 0 -37 14 -103 113 -193 289 -274 354 -481 388 -68 11 -1006
21 -1137 13z m1138 -68 c145 -28 225 -83 333 -229 66 -88 223 -337 217 -343
-3 -2 -272 -10 -599 -18 -502 -11 -686 -11 -1184 0 -324 8 -593 15 -597 16
-10 4 165 288 224 364 92 119 180 180 294 204 114 24 233 28 719 25 422 -2
524 -6 593 -19z m-1502 -642 c-30 -31 -31 -46 -11 -169 8 -49 15 -94 14 -100
0 -8 -98 282 -99 293 0 1 28 2 61 2 l62 0 -27 -26z m1844 24 c-1 -12 -99 -301
-99 -293 0 6 6 51 14 100 21 125 19 142 -11 170 l-27 25 62 0 c33 0 61 -1 61
-2z m-1455 -564 c251 -21 689 -21 940 0 105 9 201 19 215 21 20 4 22 3 9 -5
-28 -17 -253 -68 -403 -92 -192 -30 -390 -30 -582 0 -150 24 -375 75 -403 92
-13 8 -11 9 9 5 14 -2 111 -12 215 -21z"/>
<path d="M5543 2977 c-34 -12 -83 -36 -107 -54 -193 -138 -208 -484 -27 -645
188 -167 518 -127 649 79 17 27 37 72 46 101 l15 52 -117 0 -117 -1 -24 -38
c-33 -54 -85 -81 -156 -81 -116 0 -190 78 -190 200 0 139 102 222 240 196 39
-8 110 -65 120 -97 6 -17 17 -19 121 -19 133 0 131 -2 85 96 -51 109 -140 186
-250 218 -81 24 -211 21 -288 -7z"/>
<path d="M11465 2983 c-72 -25 -138 -94 -155 -161 -35 -148 44 -255 222 -301
45 -12 102 -30 125 -41 96 -44 52 -144 -55 -127 -41 7 -82 46 -82 78 0 18 -8
19 -110 19 l-110 0 0 -38 c0 -91 75 -179 185 -217 67 -23 202 -23 278 -1 138
40 214 188 161 314 -33 80 -104 126 -255 167 -106 28 -136 45 -145 82 -6 21
-2 31 20 50 40 34 99 32 137 -6 16 -16 29 -37 29 -45 0 -14 16 -16 110 -16
l110 0 -6 33 c-17 90 -68 157 -151 197 -65 32 -232 39 -308 13z"/>
<path d="M6467 2978 c-2 -7 -71 -184 -152 -393 -81 -209 -149 -383 -152 -387
-2 -5 52 -8 120 -8 l124 0 19 55 18 56 140 -3 140 -3 21 -52 20 -53 122 0 123
0 -21 53 c-35 87 -249 638 -271 695 l-19 52 -114 0 c-81 0 -114 -4 -118 -12z
m168 -394 c19 -54 35 -102 35 -106 0 -5 -38 -8 -85 -8 -47 0 -85 4 -85 9 0 5
11 40 25 77 14 38 33 89 42 113 19 52 19 52 68 -85z"/>
<path d="M7100 2591 l0 -401 115 0 115 0 0 115 0 115 43 0 42 0 58 -115 57
-115 130 0 131 0 -51 93 c-28 50 -60 110 -71 132 l-20 40 48 51 c116 119 101
333 -30 421 -76 51 -104 56 -344 60 l-223 5 0 -401z m399 194 c55 -28 62 -112
14 -157 -21 -19 -37 -24 -109 -27 l-84 -3 0 101 0 101 75 0 c47 0 87 -6 104
-15z"/>
<path d="M7920 2590 l0 -400 115 0 115 0 2 201 3 201 74 -106 75 -106 75 0 76
0 75 106 75 107 3 -202 2 -201 110 0 110 0 0 400 0 401 -92 -3 -92 -3 -134
-188 -133 -188 -18 23 c-9 13 -70 98 -135 191 l-118 167 -94 0 -94 0 0 -400z"/>
<path d="M9224 2955 c-24 -59 -294 -756 -294 -761 0 -2 53 -4 119 -4 l119 0
22 55 22 55 138 0 137 0 20 -52 20 -53 122 -3 c66 -1 121 1 121 5 -1 4 -69
184 -153 398 l-152 390 -113 3 -113 3 -15 -36z m171 -357 c22 -62 42 -116 43
-120 2 -4 -37 -8 -87 -8 l-90 0 42 120 c23 66 44 120 47 120 3 0 23 -50 45
-112z"/>
<path d="M9810 2885 l0 -104 123 -3 122 -3 3 -292 2 -293 110 0 110 0 2 293 3
292 123 3 122 3 0 104 0 105 -360 0 -360 0 0 -105z"/>
<path d="M10640 2590 l0 -400 280 0 280 0 0 95 0 95 -165 0 -165 0 0 60 0 60
145 0 146 0 -3 93 -3 92 -142 3 -143 3 0 54 0 55 160 0 160 0 0 95 0 95 -275
0 -275 0 0 -400z"/>
<path d="M628 2247 c-17 -66 -16 -413 2 -547 24 -186 83 -311 176 -369 24 -16
81 -40 127 -55 199 -62 436 -94 1037 -137 175 -13 839 -6 985 10 50 6 158 15
240 21 298 21 604 80 731 140 169 81 225 253 227 690 1 171 -2 224 -15 260
-15 44 -15 45 -26 20 -29 -73 -136 -133 -433 -243 -213 -80 -312 -109 -499
-147 -339 -69 -703 -99 -971 -81 -309 21 -636 74 -854 137 -116 33 -413 144
-520 194 -82 37 -175 110 -175 136 0 7 -4 15 -9 18 -5 3 -15 -18 -23 -47z
m387 -280 c384 -127 868 -197 1370 -197 642 0 1285 122 1641 310 l91 48 -4
-46 c-3 -26 -12 -57 -19 -69 -8 -13 -26 -84 -39 -160 -30 -159 -42 -188 -100
-242 -53 -49 -115 -81 -220 -114 -84 -26 -223 -53 -231 -44 -17 17 112 210
209 313 73 79 63 79 -83 2 -114 -60 -248 -149 -350 -232 -88 -72 -214 -198
-238 -239 -9 -15 -26 -30 -37 -32 -62 -14 -201 -26 -385 -35 -297 -14 -620 7
-824 54 -62 15 -68 19 -158 112 -140 145 -313 274 -499 372 -145 77 -155 77
-82 -2 97 -103 226 -296 209 -313 -8 -9 -147 18 -231 44 -105 33 -167 65 -220
114 -58 54 -70 83 -100 242 -13 76 -31 147 -39 160 -7 12 -16 43 -18 68 l-5
45 111 -56 c61 -31 174 -77 251 -103z"/>
<path d="M750 2008 c0 -6 16 -25 35 -43 41 -39 168 -84 325 -115 108 -22 260
-38 249 -26 -3 3 -68 24 -145 45 -76 22 -212 65 -301 95 -90 29 -163 49 -163
44z"/>
<path d="M3870 1968 c-80 -27 -214 -69 -299 -94 -85 -24 -157 -47 -160 -50
-11 -12 142 4 249 26 187 38 315 88 346 135 9 14 15 27 13 29 -2 2 -69 -19
-149 -46z"/>
<path d="M1550 1796 c0 -11 149 -120 193 -143 245 -123 1039 -123 1284 0 51
26 197 136 190 143 -2 3 -42 -20 -89 -49 -47 -29 -122 -66 -168 -81 -275 -91
-861 -92 -1146 -2 -47 15 -117 49 -168 81 -88 55 -96 59 -96 51z"/>
<path d="M1580 1649 c164 -155 306 -196 735 -215 170 -7 416 13 568 46 114 25
211 79 310 172 l72 68 -69 -50 c-197 -146 -391 -192 -806 -193 -260 0 -406 15
-557 59 -102 29 -153 56 -254 130 l-74 54 75 -71z"/>
<path d="M1753 1404 c41 -22 237 -71 362 -89 130 -20 382 -22 505 -6 162 23
432 92 417 108 -2 2 -44 -6 -93 -18 -329 -77 -765 -79 -1098 -4 -126 29 -130
29 -93 9z"/>
<path d="M10103 1780 c-113 -26 -185 -174 -139 -285 42 -100 210 -100 276 1
27 40 25 44 -15 44 -23 0 -38 -6 -42 -15 -7 -20 -55 -45 -86 -45 -14 0 -35 9
-48 19 -48 39 -20 174 42 206 53 28 119 9 119 -33 0 -7 15 -12 35 -12 28 0 35
4 35 20 0 71 -88 121 -177 100z"/>
<path d="M5665 1768 c-5 -16 -55 -322 -55 -337 0 -6 15 -11 34 -11 31 0 34 3
40 38 17 96 16 93 48 90 27 -3 33 -9 53 -63 21 -59 23 -60 63 -63 l41 -3 -25
62 c-13 35 -24 66 -24 70 0 4 15 22 34 41 59 59 57 144 -4 175 -34 17 -199 18
-205 1z m163 -60 c7 -7 12 -24 12 -39 0 -37 -33 -59 -88 -59 l-43 0 6 38 c13
71 13 72 59 72 23 0 47 -5 54 -12z"/>
<path d="M6283 1600 l-30 -180 124 0 123 0 0 30 0 30 -80 0 c-76 0 -80 1 -80
23 1 63 6 67 90 67 l78 0 4 30 5 30 -80 0 c-77 0 -79 1 -73 23 3 12 6 32 6 44
0 21 5 22 88 25 87 3 87 3 90 31 l3 27 -119 0 -119 0 -30 -180z"/>
<path d="M6936 1768 c-6 -16 -56 -322 -56 -337 0 -6 15 -11 34 -11 34 0 34 0
45 63 6 34 14 83 17 110 4 26 10 49 13 51 3 2 33 -47 65 -110 57 -108 61 -114
91 -114 l31 0 27 168 c15 92 27 173 27 180 0 7 -13 12 -34 12 l-33 0 -18 -110
c-10 -60 -20 -110 -24 -110 -3 0 -31 49 -62 108 -52 99 -59 107 -88 110 -19 2
-33 -2 -35 -10z"/>
<path d="M7600 1750 c0 -30 1 -30 53 -30 l54 0 -23 -137 c-13 -76 -24 -144
-24 -150 0 -8 13 -13 34 -13 l33 0 24 148 24 147 58 3 c40 2 57 7 57 17 0 7 3
20 6 29 5 14 -11 16 -145 16 l-151 0 0 -30z"/>
<path d="M8281 1600 l-92 -180 38 0 c36 0 41 3 61 45 l22 45 65 0 c69 0 67 2
77 -65 2 -15 12 -21 41 -23 26 -2 37 1 37 10 0 8 -13 88 -30 178 -16 90 -30
166 -30 167 0 2 -22 3 -49 3 l-48 0 -92 -180z m144 18 l7 -58 -46 0 c-25 0
-46 2 -46 5 0 2 14 34 32 70 36 72 42 70 53 -17z"/>
<path d="M8955 1768 c-5 -16 -55 -322 -55 -337 0 -8 35 -11 113 -9 l112 3 3
28 3 27 -75 0 c-42 0 -76 3 -76 6 0 10 39 245 45 272 5 20 2 22 -30 22 -20 0
-37 -6 -40 -12z"/>
<path d="M10691 1600 l-92 -180 38 0 c36 0 41 3 61 45 l22 45 65 0 c69 0 67 2
77 -65 2 -15 12 -21 41 -23 26 -2 37 1 37 10 0 8 -13 88 -30 178 -16 90 -30
166 -30 167 0 2 -22 3 -49 3 l-48 0 -92 -180z m144 18 l7 -58 -46 0 c-25 0
-46 2 -46 5 0 2 14 34 32 70 36 72 42 70 53 -17z"/>
<path d="M11366 1758 c-6 -26 -56 -322 -56 -332 0 -3 15 -6 34 -6 37 0 35 -3
52 93 6 35 9 38 37 35 28 -3 33 -9 55 -65 24 -62 24 -63 63 -63 l39 0 -25 66
c-14 37 -25 70 -25 74 0 3 11 13 25 20 54 29 71 120 31 167 -23 27 -29 28
-125 31 -98 4 -100 3 -105 -20z m158 -44 c21 -8 21 -62 -1 -86 -11 -13 -30
-18 -65 -18 -42 0 -49 3 -45 18 3 9 8 34 12 55 6 35 8 37 45 37 21 0 45 -3 54
-6z"/>
<path d="M641 1355 c1 -201 8 -252 44 -282 l27 -24 265 3 265 3 29 33 c35 39
38 70 7 76 -13 3 -71 14 -129 26 -136 26 -270 64 -336 96 -64 31 -126 99 -152
168 l-20 51 0 -150z"/>
<path d="M4096 1435 c-36 -81 -92 -135 -172 -165 -73 -27 -257 -75 -344 -90
-106 -17 -110 -19 -110 -41 0 -12 15 -36 34 -55 l34 -34 251 0 c269 0 297 4
322 51 10 19 27 399 18 399 -2 0 -17 -30 -33 -65z"/>
</g>
</svg>
