<svg xmlns="http://www.w3.org/2000/svg" xmlns:xlink="http://www.w3.org/1999/xlink" width="500" zoomAndPan="magnify" viewBox="0 0 375 187.499995" height="250" preserveAspectRatio="xMidYMid meet" version="1.0"><defs><clipPath id="45f870d5e3"><path d="M 83 129 L 123 129 L 123 158.40625 L 83 158.40625 Z M 83 129 " clip-rule="nonzero"/></clipPath><clipPath id="2be7b2f2c3"><path d="M 251 129 L 292 129 L 292 158.40625 L 251 158.40625 Z M 251 129 " clip-rule="nonzero"/></clipPath><clipPath id="81bace2b07"><path d="M 85 28.253906 L 290 28.253906 L 290 112 L 85 112 Z M 85 28.253906 " clip-rule="nonzero"/></clipPath><clipPath id="503ca63ab6"><path d="M 81.191406 83 L 293.625 83 L 293.625 154 L 81.191406 154 Z M 81.191406 83 " clip-rule="nonzero"/></clipPath></defs><path fill="#5271ff" d="M 97.441406 107.050781 C 105.90625 110.238281 118.773438 112.3125 122.835938 112.550781 C 126.902344 112.789062 127.792969 111.832031 127.792969 111.832031 C 114.6875 109.359375 89.917969 100.347656 89.917969 100.347656 C 89.917969 100.347656 88.964844 103.859375 97.441406 107.050781 Z M 97.441406 107.050781 " fill-opacity="1" fill-rule="nonzero"/><path fill="#5271ff" d="M 284.886719 100.351562 C 284.886719 100.351562 260.121094 109.363281 247.011719 111.835938 C 247.011719 111.835938 247.894531 112.789062 251.96875 112.554688 C 256.042969 112.320312 268.902344 110.242188 277.367188 107.054688 C 285.832031 103.863281 284.886719 100.351562 284.886719 100.351562 Z M 284.886719 100.351562 " fill-opacity="1" fill-rule="nonzero"/><g clip-path="url(#45f870d5e3)"><path fill="#004aad" d="M 83.132812 129.300781 L 83.699219 152.070312 C 83.699219 152.484375 83.738281 152.898438 83.820312 153.304688 C 83.902344 153.710938 84.023438 154.109375 84.183594 154.492188 C 84.34375 154.875 84.539062 155.242188 84.769531 155.585938 C 85 155.933594 85.265625 156.253906 85.558594 156.546875 C 85.851562 156.839844 86.171875 157.101562 86.519531 157.335938 C 86.867188 157.566406 87.230469 157.761719 87.617188 157.921875 C 88 158.078125 88.398438 158.199219 88.804688 158.28125 C 89.214844 158.363281 89.625 158.40625 90.042969 158.40625 L 116.128906 158.40625 C 116.578125 158.40625 117.027344 158.363281 117.46875 158.273438 C 117.910156 158.183594 118.339844 158.054688 118.757812 157.882812 C 119.171875 157.710938 119.570312 157.5 119.945312 157.25 C 120.320312 157 120.667969 156.714844 120.984375 156.394531 C 121.304688 156.078125 121.589844 155.730469 121.839844 155.355469 C 122.089844 154.980469 122.300781 154.585938 122.476562 154.171875 C 122.648438 153.753906 122.777344 153.324219 122.867188 152.882812 C 122.953125 152.441406 122.996094 151.996094 122.996094 151.546875 C 122.996094 151.546875 105.105469 149.164062 93.996094 144.457031 C 85.191406 140.726562 83.132812 129.300781 83.132812 129.300781 Z M 83.132812 129.300781 " fill-opacity="1" fill-rule="nonzero"/></g><g clip-path="url(#2be7b2f2c3)"><path fill="#004aad" d="M 280.820312 144.460938 C 269.710938 149.164062 251.816406 151.554688 251.816406 151.554688 C 251.816406 152.003906 251.863281 152.449219 251.949219 152.890625 C 252.039062 153.332031 252.167969 153.761719 252.339844 154.175781 C 252.515625 154.59375 252.726562 154.988281 252.976562 155.359375 C 253.226562 155.734375 253.511719 156.082031 253.832031 156.398438 C 254.148438 156.714844 254.496094 157 254.871094 157.25 C 255.246094 157.5 255.640625 157.710938 256.058594 157.882812 C 256.472656 158.054688 256.902344 158.1875 257.34375 158.273438 C 257.785156 158.363281 258.230469 158.40625 258.683594 158.40625 L 284.773438 158.40625 C 285.191406 158.40625 285.605469 158.367188 286.011719 158.285156 C 286.421875 158.203125 286.820312 158.082031 287.207031 157.921875 C 287.589844 157.765625 287.957031 157.570312 288.304688 157.335938 C 288.652344 157.105469 288.972656 156.84375 289.265625 156.546875 C 289.5625 156.253906 289.824219 155.933594 290.058594 155.585938 C 290.289062 155.242188 290.484375 154.875 290.644531 154.492188 C 290.804688 154.105469 290.925781 153.707031 291.007812 153.300781 C 291.089844 152.890625 291.128906 152.480469 291.128906 152.0625 L 291.691406 129.292969 C 291.691406 129.292969 289.621094 140.726562 280.820312 144.460938 Z M 280.820312 144.460938 " fill-opacity="1" fill-rule="nonzero"/></g><path fill="#004aad" d="M 187.40625 141.179688 C 164.492188 141.550781 144.738281 134.964844 144.738281 134.964844 C 161.390625 143.894531 187.40625 143.839844 187.40625 143.839844 C 187.40625 143.839844 213.414062 143.898438 230.074219 134.964844 C 230.074219 134.964844 210.96875 141.421875 187.40625 141.179688 Z M 187.40625 141.179688 " fill-opacity="1" fill-rule="nonzero"/><path fill="#004aad" d="M 222.402344 128.824219 C 210.582031 133.023438 187.40625 133.164062 187.40625 133.164062 C 187.40625 133.164062 164.230469 133.023438 152.410156 128.816406 C 141.570312 124.957031 133.074219 116.300781 133.074219 116.300781 C 133.074219 116.300781 141.542969 126.828125 151.613281 130.980469 C 161.683594 135.128906 187.40625 135.605469 187.40625 135.605469 C 187.40625 135.605469 213.136719 135.125 223.203125 130.980469 C 233.269531 126.832031 241.742188 116.300781 241.742188 116.300781 C 241.742188 116.300781 233.246094 124.957031 222.402344 128.824219 Z M 222.402344 128.824219 " fill-opacity="1" fill-rule="nonzero"/><path fill="#004aad" d="M 187.40625 128.238281 C 187.40625 128.238281 213.136719 127.757812 223.203125 123.613281 C 229.140625 121.164062 234.519531 116.503906 237.933594 113.085938 C 237.492188 113.179688 236.898438 113.296875 236.652344 113.351562 C 233.144531 116.078125 228.097656 119.429688 222.402344 121.460938 C 210.585938 125.65625 187.410156 125.796875 187.410156 125.796875 C 187.410156 125.796875 164.234375 125.65625 152.414062 121.449219 C 146.710938 119.425781 141.664062 116.070312 138.160156 113.347656 C 137.734375 113.273438 137.304688 113.1875 136.878906 113.089844 C 140.292969 116.503906 145.671875 121.167969 151.609375 123.613281 C 161.683594 127.761719 187.40625 128.238281 187.40625 128.238281 Z M 187.40625 128.238281 " fill-opacity="1" fill-rule="nonzero"/><g clip-path="url(#81bace2b07)"><path fill="#004aad" d="M 95.835938 91.496094 C 104.949219 96.003906 140.347656 111.917969 187.40625 111.835938 C 234.46875 111.914062 269.867188 96 278.976562 91.496094 C 287.398438 87.328125 290.960938 83.117188 289.28125 78.335938 C 287.605469 73.550781 275.140625 66.847656 275.140625 66.847656 C 275.140625 66.847656 273.699219 65.410156 262.195312 64.9375 C 262.195312 64.9375 261.875 64.394531 261.316406 63.46875 C 262.523438 63.660156 263.710938 63.949219 264.871094 64.335938 C 272.902344 66.847656 282.613281 62.78125 281.777344 58.59375 C 280.941406 54.410156 271.226562 52.734375 266.792969 53.570312 C 262.359375 54.40625 262.238281 59.671875 262.238281 59.671875 L 258.96875 59.671875 C 254.804688 53.046875 247.433594 41.898438 241.90625 36.707031 C 233.75 29.042969 225.921875 28.722656 187.40625 28.253906 C 148.894531 28.734375 141.0625 29.054688 132.914062 36.707031 C 127.378906 41.902344 120.015625 53.046875 115.847656 59.675781 L 112.578125 59.675781 C 112.578125 59.675781 112.457031 54.410156 108.023438 53.574219 C 103.589844 52.738281 93.878906 54.421875 93.039062 58.601562 C 92.199219 62.78125 101.910156 66.855469 109.945312 64.339844 C 111.105469 63.957031 112.292969 63.667969 113.5 63.472656 C 112.9375 64.402344 112.621094 64.941406 112.621094 64.941406 C 101.121094 65.410156 99.679688 66.847656 99.675781 66.847656 C 99.671875 66.847656 87.21875 73.546875 85.527344 78.335938 C 83.835938 83.121094 87.414062 87.328125 95.835938 91.496094 Z M 134.585938 74.738281 C 134.941406 78.566406 136.859375 89.332031 136.859375 89.332031 L 130.507812 69.472656 L 138.660156 69.472656 C 138.660156 69.472656 134.222656 70.917969 134.585938 74.738281 Z M 187.40625 109.667969 C 187.40625 109.667969 162.957031 108.132812 144.257812 101.84375 C 144.257812 101.84375 172.785156 105.121094 187.40625 104.402344 C 202.027344 105.121094 230.554688 101.84375 230.554688 101.84375 C 211.859375 108.144531 187.40625 109.667969 187.40625 109.667969 Z M 239.78125 89.328125 C 239.78125 89.328125 241.703125 78.5625 242.058594 74.734375 C 242.417969 70.90625 237.984375 69.46875 237.984375 69.46875 L 246.140625 69.46875 Z M 138.984375 36.609375 C 145.808594 32.382812 155.300781 31.375 187.40625 31.375 C 216.730469 31.375 229.851562 32.285156 235.703125 36.511719 C 243.886719 41.300781 251.859375 56.011719 258.933594 67.183594 L 187.40625 68.765625 L 116.132812 67.183594 C 123.207031 56.011719 130.792969 41.410156 138.984375 36.609375 Z M 138.984375 36.609375 " fill-opacity="1" fill-rule="nonzero"/></g><g clip-path="url(#503ca63ab6)"><path fill="#004aad" d="M 290.757812 83.375 C 290.117188 89.875 281.253906 93.476562 258.238281 101.855469 C 227.378906 113.09375 187.402344 113.507812 187.402344 113.507812 C 187.402344 113.507812 147.433594 113.09375 116.566406 101.855469 C 93.558594 93.476562 84.703125 89.875 84.054688 83.375 C 84.054688 83.375 81.214844 87.007812 81.617188 100.667969 C 82.050781 115.664062 82.097656 134.644531 93.121094 141.667969 C 101.324219 146.890625 128.992188 151.226562 143.011719 151.261719 C 143.019531 151.261719 143.023438 151.269531 143.03125 151.269531 C 190.039062 156.953125 231.953125 151.269531 231.953125 151.269531 C 246.015625 151.203125 273.511719 146.871094 281.699219 141.664062 C 292.738281 134.648438 292.769531 115.664062 293.207031 100.667969 C 293.597656 87.007812 290.757812 83.375 290.757812 83.375 Z M 289.71875 100.507812 C 287.675781 102.582031 288.40625 103.378906 285.527344 117.738281 C 282.648438 132.097656 253.566406 134.484375 253.566406 134.484375 C 259.320312 121.882812 270.660156 111.195312 270.660156 111.195312 C 248.570312 120.226562 230.761719 136.859375 225.261719 145.265625 C 218.621094 146.402344 206.914062 147.808594 189.546875 147.808594 C 167.511719 147.808594 153.859375 144.796875 148.027344 143.148438 C 141.222656 134.300781 124.511719 119.515625 104.152344 111.195312 C 104.152344 111.195312 115.496094 121.882812 121.253906 134.484375 C 121.253906 134.484375 92.171875 132.09375 89.292969 117.738281 C 86.414062 103.382812 87.140625 102.582031 85.101562 100.507812 C 84.535156 98.378906 84.273438 96.210938 84.316406 94.007812 C 84.316406 94.007812 111.1875 114.386719 187.40625 115.742188 C 263.625 114.386719 290.496094 94.007812 290.496094 94.007812 C 290.542969 96.210938 290.28125 98.378906 289.71875 100.507812 Z M 289.71875 100.507812 " fill-opacity="1" fill-rule="nonzero"/></g></svg>